<?xml version="1.0" encoding="UTF-8"?>
<svg id="Layer_2" data-name="Layer 2" xmlns="http://www.w3.org/2000/svg" viewBox="0 0 470.72 311.9">
  <defs>
    <style>
      .cls-1 {
        letter-spacing: -.02em;
      }

      .cls-2 {
        stroke-width: 0px;
      }

      .cls-3 {
        letter-spacing: .01em;
      }

      .cls-4 {
        letter-spacing: -.03em;
      }

      .cls-5 {
        letter-spacing: 0em;
      }

      .cls-6 {
        font-family: Gilroy-Medium, Gilroy-Medium;
        font-size: 30px;
        font-weight: 500;
      }

      .cls-7 {
        letter-spacing: .01em;
      }

      .cls-8 {
        letter-spacing: -.02em;
      }

      .cls-9 {
        letter-spacing: -.02em;
      }
    </style>
  </defs>
  <g id="Layer_1-2" data-name="Layer 1">
    <g>
      <path class="cls-2" d="m244.9,305.14c.14-2.31.38-4.42.39-6.53.04-11.34.01-22.68.04-34.02,0-2.16-.25-4.43,3.14-4.45,3.35-.02,3.22,2.17,3.22,4.37.02,14.01-.12,28.02.09,42.02.06,4.12-1.19,5.38-5.38,5.37-43.51-.14-87.02-.09-130.52-.09-36.51,0-73.01,0-109.52,0H0V.1c2.01,0,3.79,0,5.58,0,80.01,0,160.03.04,240.04-.1,4.78,0,6.31,1.22,6.2,6.1-.31,13.67-.04,27.35-.21,41.02-.02,1.61-1.1,4.23-2.26,4.6-3.5,1.13-4.05-1.46-4.04-4.31.04-11.34.02-22.68,0-34.02,0-1.97-.18-3.95-.3-6.34H6.1v298.08h238.81Z"/>
      <path class="cls-2" d="m231.24,183.55c2.5-13.18,5.06-26.36,7.46-39.56.89-4.9,1.48-9.86,2.12-14.81.53-4.06,2.61-5,6.24-3.46,5.5,2.33,8.73,6.96,8.06,12.34-2.76,22.15-7.45,43.88-14.75,65-.81,2.35-1.63,4.8-3.01,6.82-1.41,2.07-3.87,5.41-5.23,5.12-2.76-.58-5.77-2.75-7.4-5.14-1.99-2.93-2.66-6.75-3.9-10.18-3.97-10.93-7.94-21.86-11.95-32.78-.32-.86-.98-1.6-2.1-3.39-2.32,10.51-4.29,20.01-6.56,29.44-1.51,6.29-3.21,12.55-5.25,18.69-1.41,4.24-3.16,4.43-6.52,1.48-4.74-4.17-6.61-8.92-5.15-15.52,5.05-22.87,9.66-45.83,14.3-68.79.78-3.86,2.91-4.82,5.38-2.35,3.78,3.79,8.02,7.83,9.97,12.61,5.13,12.6,9.11,25.67,13.61,38.53.74,2.11,1.83,4.11,2.75,6.15.64-.06,1.29-.13,1.93-.19Z"/>
      <path class="cls-2" d="m146.62,184.19c-1.11-.08-1.28-.11-1.44-.1-12.1.73-20.56,5.74-22.96,18.64-.59,3.16-2.68,6.04-4.08,9.06-1.69,3.67-4.16,3.67-7.29,1.76-6-3.68-7.45-7.29-4.73-13.74,1.84-4.36,3.56-8.02-.42-12.55-2.99-3.4-1.66-7.24,2.97-8.52,6.77-1.88,9.19-6.49,11.08-12.5,3.08-9.81,6.73-19.45,10.18-29.15,1.96-5.5,12.34-12.67,17.81-11.45,2.22.49,4.91,3.31,5.55,5.59,2.39,8.42,4.05,17.06,5.91,25.63.35,1.62.59,3.32.5,4.96-.31,5.82,1.77,9.01,8.16,8.51,1.07-.08,3.2,1.45,3.21,2.27.02,1.33-1.08,3.65-2.08,3.87-8.71,1.93-7.99,8.35-7.87,14.95.12,6.12-.29,12.3-1.05,18.37-.23,1.84-2.44,3.42-3.74,5.13-1.81-1.43-4.76-2.55-5.23-4.33-1.6-6.07-2.34-12.36-3.37-18.57-.43-2.58-.74-5.18-1.11-7.82Zm-3.37-37.3l-1.4-.16c-2.6,7.97-5.2,15.94-8.08,24.76,3.67-.32,6.31-.35,8.86-.86,1.02-.21,2.66-1.53,2.61-2.25-.5-7.17-1.29-14.33-1.99-21.49Z"/>
      <path class="cls-2" d="m369.61,183.56c-5.44,1.44-10.33,2.4-14.95,4.1-2.01.74-4.1,2.68-5.04,4.62-3.04,6.28-5.55,12.81-8.28,19.24-1.68,3.97-4.3,4.01-7.6,1.92-5.76-3.64-7.23-7.25-4.64-13.41,1.89-4.51,3.72-8.32-.42-13.03-2.93-3.33-1.46-7.07,3.35-8.38,6.66-1.82,8.9-6.42,10.75-12.21,3.14-9.81,6.75-19.48,10.2-29.19,1.97-5.55,12.15-12.64,17.77-11.6,2.1.39,4.79,2.98,5.39,5.09,2.43,8.42,4.17,17.05,6.11,25.62.29,1.29.33,2.65.36,3.98.13,5.83.81,11.04,8.83,10.08.87-.1,2.69,1.38,2.75,2.23.09,1.21-1.01,2.53-1.67,3.76-.13.24-.55.41-.86.47-7.55,1.51-7.74,6.87-7.5,13.11.25,6.62-.26,13.31-1.01,19.9-.21,1.81-2.47,3.39-3.8,5.07-1.8-1.46-4.72-2.62-5.19-4.42-1.59-6.08-2.33-12.38-3.35-18.61-.42-2.57-.74-5.16-1.19-8.32Zm-3.27-36.6c-.48-.07-.95-.14-1.43-.21-2.59,7.93-5.18,15.87-8.05,24.68,3.6-.31,6.41-.36,9.11-.9.95-.19,2.42-1.64,2.37-2.43-.5-7.06-1.29-14.1-1.99-21.15Z"/>
      <path class="cls-2" d="m289.9,187.55c1.25-3.2,2.45-6.41,3.76-9.59,5.33-12.91,10.61-25.84,16.1-38.68,1.43-3.34,3.34-6.53,5.37-9.56,3.4-5.09,5.28-5.5,10.34-2.9,4.8,2.47,5.86,4.79,3.89,10.22-1.64,4.52-3.7,8.9-5.77,13.25-7.64,16.07-15.31,32.14-23.1,48.14-2.32,4.77-4.91,9.44-7.75,13.92-2.07,3.26-5.51,3.73-8.09,1-2.75-2.92-5.88-6.37-6.71-10.07-5.04-22.53-9.6-45.16-13.93-67.84-.58-3.06,1.02-6.54,1.61-9.83,3.49,1.48,7.51,2.28,10.38,4.56,7.41,5.89,7.18,14.92,8.22,23.28,1.4,11.34,2.69,22.7,4.02,34.05.55.02,1.1.03,1.66.05Z"/>
      <path class="cls-2" d="m458.66,124.76c1.6.7,4.8,1.17,6.41,3.01,2.04,2.33,3.8,5.82,3.7,8.75-.05,1.45-4.39,3.08-7.01,4.07-7.43,2.8-15.16,4.88-22.41,8.08-5.24,2.31-5.32,4.63-1.23,8.61,5.02,4.87,10.55,9.23,15.39,14.27,14,14.6,11.59,30.28-5.99,39.63-2.89,1.53-6.16,2.6-9.38,3.21-12.06,2.3-23.44.97-31.96-8.85-2.39-2.76-3.74-7.04-4.11-10.77-.45-4.53,3.17-6.13,6.98-3.51,2.87,1.98,5.42,4.44,8.27,6.45,8.86,6.26,21.36,4.19,27.44-4.77.95-1.41.85-4.18.16-5.88-.83-2.05-2.7-3.76-4.32-5.41-5.36-5.48-10.94-10.76-16.22-16.32-8.54-8.98-7.68-19.66,2.17-27.42,9.08-7.14,19.31-11.63,32.1-13.15Z"/>
      <path class="cls-2" d="m90.32,187.4c1.93,4.68,1.06,8.01-1.77,10.84-9.89,9.9-21.91,15.48-35.72,17.25-1.25.16-2.62-.32-3.89-.67-13.49-3.72-23.5-19.87-20.39-33.51,5.07-22.21,16.82-39.98,36.06-52.51,1.52-.99,3.22-1.82,4.95-2.33,3.96-1.17,8.31-3.04,11.76.52,4.26,4.4,8.15,9.28,6.84,16.03-.64.34-.95.65-1.21.61-11.88-2.03-19.53,4.71-26.35,12.89-6.77,8.13-12.32,16.99-14.72,27.48-.4,1.77-.66,3.61-.68,5.42-.08,6.84,2.48,9.68,9.08,8.29,10.02-2.11,19.85-5.17,29.73-7.92,2.02-.56,3.94-1.49,6.3-2.4Z"/>
      <path class="cls-2" d="m245.79,94.87c1.18-10.25,5.86-21.64,15.8-30.57,5.21-4.68,10.96-7.22,17.77-4.16,7.09,3.18,10.4,9.44,10.8,16.75.84,15.48-6.12,27.29-18.73,35.81-5.19,3.5-11.04,4.91-16.99,1.79-5.61-2.94-8.92-9.66-8.66-19.62Zm34.3-15.84c-.37-1.85-.57-4.37-1.39-6.67-1.5-4.2-4.82-5.32-8.19-2.34-9.47,8.37-14.42,19.04-14.01,31.74.18,5.5,3.59,7.1,8.19,4.03,9.25-6.16,14.52-14.84,15.4-26.76Z"/>
      <path class="cls-2" d="m102.81,115.85c-6.02-2.31-7.95-5.84-6.81-11.58.77-3.9,1.65-7.79,2.46-11.68.02-.11-.15-.26-.62-1.04-3.89.81-8.11,1.44-12.15,2.69-1.14.35-2.11,2.38-2.53,3.82-1.69,5.84-3.13,11.76-4.68,17.74-6.15-2.81-8.06-6.8-7.22-12.47.56-3.82.31-7.76.47-11.64.04-.97-.09-2.26.45-2.84,6.58-6.99,5.38-16.32,7.61-24.6.48-1.77,1.39-3.42,2.11-5.13,1.55,1.12,3.32,2.03,4.6,3.39,3.15,3.35,3.3,7.43,2.3,11.7-.7,3.01-1.22,6.05-1.93,9.62,4.39-.35,8.04-.34,11.54-1.06,1.32-.27,2.99-2.05,3.32-3.43,1.28-5.32,2.04-10.76,3.12-16.13.28-1.37,1.05-2.64,1.59-3.96,1.4.68,3.07,1.07,4.16,2.09,4.88,4.57,4.06,10.13,2.39,15.78-.83,2.79-2.37,5.71,1.47,7.75.24.13-.34,3.17-.97,3.36-4.18,1.23-4.65,4.63-5.49,8.05-1.58,6.43-3.37,12.81-5.18,19.59Z"/>
      <path class="cls-2" d="m165.15,64.74c-3.02.85-6.02,1.81-9.07,2.53-1.93.46-3.95.49-5.91.84q-11.78,2.12-12.32,15.34h17.06c.22.45.44.9.65,1.35-1.48,1.26-2.76,3.04-4.47,3.68-3.55,1.33-7.32,2.03-10.99,3.04-1.94.53-5.02.65-5.57,1.86-1.53,3.4-2.14,7.26-2.74,11-.07.41,2.32,1.83,3.45,1.71,5.93-.64,11.82-1.62,17.72-2.48.94-.14,1.88-.21,3.95.69-1.26,1.75-2.15,4.08-3.84,5.16-7.18,4.59-15.18,6.62-23.71,6.17-5.61-.29-9.47-5.91-8.14-11.85,2.22-9.87,4.62-19.7,6.9-29.56.34-1.45.52-2.94.65-4.43.76-8.65,1.43-9.48,10.3-9.51,7.13-.02,14.26.38,21.37.84,1.59.1,3.1,1.25,4.65,1.91.02.57.03,1.13.05,1.7Z"/>
      <path class="cls-2" d="m469.25,65.29c-4.78.9-9.55,1.85-14.34,2.68q-12.25,2.12-12.81,15.28h16.75c.29.43.58.85.87,1.28-1.34,1.3-2.47,3.18-4.07,3.79-3.7,1.4-7.63,2.92-11.49,3.01-4.47.1-5.95,2.02-6.97,5.89-2.4,9.13-1.88,9.97,7.49,8.7,5.32-.72,10.59-1.8,15.88-2.72.33.47.66.95.99,1.42-1.48,1.7-2.66,3.89-4.49,5.03-6.94,4.33-14.61,6.3-22.81,6.04-5.88-.19-10.14-5.41-8.87-11.23,2.12-9.74,4.56-19.41,6.77-29.13.62-2.75,1.35-5.59,1.26-8.37-.16-4.67,2.37-6.42,6.34-6.41,8.3,0,16.61.24,24.9.62,1.59.07,3.13,1.25,4.7,1.91-.03.75-.06,1.5-.09,2.25Z"/>
      <path class="cls-2" d="m397.58,83.42h17.37c.25.43.51.85.76,1.28-1.42,1.28-2.64,3.12-4.31,3.71-3.89,1.37-7.97,2.8-12.02,2.97-3.89.16-5.31,1.85-6.01,5.09-.1.49-.18.99-.32,1.47-2.34,8.24-1.79,8.94,6.8,8.04,2.81-.29,5.58-.89,8.37-1.38,2.7-.47,5.4-.97,8.1-1.45.36.42.71.84,1.07,1.26-1.37,1.73-2.41,3.99-4.17,5.09-7.07,4.44-14.9,6.49-23.28,6.15-5.58-.23-9.82-5.48-8.7-11,2.73-13.51,5.57-27,8.53-40.46.26-1.16,1.8-2.91,2.76-2.92,10.09-.09,20.18.07,30.27.31.79.02,1.56,1.08,3.44,2.48-2.78,1.08-4.7,2.15-6.75,2.56-5.21,1.06-10.45,1.93-15.72,2.66-3.08.43-4.74,1.53-4.73,5.01,0,2.77-.86,5.54-1.48,9.12Z"/>
      <path class="cls-2" d="m234.99,70.79c-9.55-2.88-14.4,3.39-18.71,9.45-3.51,4.93-6.4,10.52-8.45,16.22-2.31,6.46.11,9.5,6.77,8.57,5.99-.84,11.76-3.22,17.66-4.77,1.43-.38,3.01-.17,4.53-.23-.33,1.53-.15,3.58-1.08,4.51-6.78,6.74-14.51,11.88-24.58,11.28-8.41-.5-16.06-11.17-14.22-20.75,2.78-14.52,10.44-26.26,23.21-34.02,8.2-4.99,14.48-1.02,14.87,9.74Z"/>
      <path class="cls-2" d="m310.47,86.37c5.22-.29,9.99-.7,14.75-.75,1.62-.02,3.26.85,4.88,1.32-1.05,1.49-1.8,3.85-3.2,4.32-4.83,1.64-9.85,2.82-14.87,3.79-2.78.54-4.33,1.43-4.91,4.51-1.02,5.45-2.61,10.8-4,16.36-5.96-3.01-8.14-7-7.08-12.36,2.56-13.04,5.07-26.08,7.96-39.05.36-1.61,2.83-3.84,4.38-3.9,8.45-.28,16.92-.13,25.36.29,1.55.08,3.01,2.06,4.52,3.16-1.48,1.04-2.85,2.7-4.46,3-5.87,1.09-11.85,1.59-17.73,2.63-1.28.23-3.1,1.59-3.36,2.73-1,4.32-1.46,8.76-2.25,13.95Z"/>
      <path class="cls-2" d="m353.71,86.47c5.62-.36,10.24-.81,14.86-.86,1.56-.02,3.13.99,4.69,1.53-.92,1.4-1.56,3.61-2.81,4.04-4.67,1.6-9.48,2.93-14.35,3.73-3.43.56-5.21,1.81-5.85,5.35-.95,5.17-2.43,10.24-3.7,15.44-5.52-2.15-8.15-6.53-7.21-11.34,2.53-13.03,4.96-26.08,7.79-39.05.4-1.82,2.75-4.52,4.29-4.58,8.59-.35,17.22-.18,25.81.22,1.56.07,3.02,2.08,4.53,3.19-1.52,1-2.94,2.59-4.59,2.89-5.87,1.08-11.83,1.6-17.71,2.65-1.25.22-2.98,1.57-3.26,2.69-1.05,4.31-1.6,8.75-2.49,14.1Z"/>
      <path class="cls-2" d="m41.99,116.25c-5.22-3.74-7.1-7.35-5.65-13.01,2.39-9.31,4.01-18.82,5.9-28.25.32-1.59.33-3.24.53-5.35-2.86,0-5.34.28-7.73-.09-1.84-.28-3.92-.96-5.24-2.18-3.29-3.03-2.65-5.79,1.67-6.57,11.2-2.03,22.46-2.31,33.65.25,1.12.26,2.45.53,3.19,1.28,1.43,1.43,2.52,3.21,3.74,4.84-1.8.81-3.56,2.17-5.41,2.31-4.41.32-10.21-1.64-12.91.51-2.73,2.18-2.43,8.19-3.43,12.53-2.05,8.9-4.04,17.8-6.13,26.69-.51,2.18-1.32,4.29-2.19,7.05Z"/>
      <text class="cls-6" transform="translate(26.98 247.1)"><tspan x="0" y="0">whe</tspan><tspan class="cls-4" x="57.51" y="0">r</tspan><tspan x="66.54" y="0">e </tspan><tspan class="cls-1" x="91.53" y="0">ev</tspan><tspan x="123.36" y="0">e</tspan><tspan class="cls-7" x="140.85" y="0">r</tspan><tspan x="151.02" y="0">y cup </tspan><tspan class="cls-5" x="233.79" y="0">i</tspan><tspan x="240.36" y="0">s a </tspan><tspan class="cls-9" x="288.09" y="0">w</tspan><tspan x="310.59" y="0">ork </tspan><tspan class="cls-8" x="361.11" y="0">o</tspan><tspan x="378.6" y="0">f a</tspan><tspan class="cls-3" x="414.78" y="0">r</tspan><tspan x="424.98" y="0">t</tspan></text>
    </g>
  </g>
</svg>