<?xml version="1.0" encoding="UTF-8"?>
<svg id="Layer_2" data-name="Layer 2" xmlns="http://www.w3.org/2000/svg" xmlns:xlink="http://www.w3.org/1999/xlink" viewBox="0 0 725.66 212.54">
  <defs>
    <style>
      .cls-1 {
        fill: #5b2c1c;
      }

      .cls-1, .cls-2, .cls-3, .cls-4, .cls-5, .cls-6, .cls-7, .cls-8, .cls-9, .cls-10, .cls-11, .cls-12, .cls-13, .cls-14, .cls-15, .cls-16, .cls-17 {
        stroke-width: 0px;
      }

      .cls-2 {
        fill: #30130b;
      }

      .cls-3 {
        fill: #e7d1b6;
      }

      .cls-4 {
        fill: url(#linear-gradient);
      }

      .cls-5 {
        fill: #745b41;
      }

      .cls-6 {
        fill: #c29673;
      }

      .cls-18 {
        letter-spacing: -.02em;
      }

      .cls-7 {
        fill: #a77958;
      }

      .cls-19 {
        letter-spacing: .01em;
      }

      .cls-8 {
        fill: #462014;
      }

      .cls-9 {
        fill: #fbe8c8;
      }

      .cls-10 {
        fill: #712e22;
      }

      .cls-20 {
        letter-spacing: -.03em;
      }

      .cls-11 {
        fill: #deb389;
      }

      .cls-21 {
        letter-spacing: 0em;
      }

      .cls-12, .cls-22 {
        fill: #fff;
      }

      .cls-13 {
        fill: url(#linear-gradient-2);
      }

      .cls-14 {
        fill: #e3c49b;
      }

      .cls-22 {
        font-family: Gilroy-Medium, Gilroy-Medium;
        font-size: 30px;
        font-weight: 500;
      }

      .cls-15 {
        fill: #21110e;
      }

      .cls-16 {
        fill: #763a21;
      }

      .cls-23 {
        letter-spacing: .01em;
      }

      .cls-24 {
        letter-spacing: -.02em;
      }

      .cls-17 {
        fill: #372e27;
      }

      .cls-25 {
        letter-spacing: -.02em;
      }
    </style>
    <linearGradient id="linear-gradient" x1="70.14" y1="85.03" x2="164.18" y2="103.84" gradientUnits="userSpaceOnUse">
      <stop offset="0" stop-color="#814a33"/>
      <stop offset="1" stop-color="#66311f"/>
    </linearGradient>
    <linearGradient id="linear-gradient-2" x1="119.97" y1="97.86" x2="55.6" y2="102.48" gradientUnits="userSpaceOnUse">
      <stop offset=".35" stop-color="#703723"/>
      <stop offset="1" stop-color="#925f42"/>
    </linearGradient>
  </defs>
  <g id="Layer_1-2" data-name="Layer 1">
    <g>
      <g>
        <path class="cls-11" d="m209.5,142.56c-1.04-.16-.96-1.54-1.83-3.2-1.42-2.73-6.83-11.55-9.13-12.33,1.42-5.22.56-4.91.61-5.18.02-.1-.02-.21,0-.3,3.91-21.43,7.03-33.75-8.22-51.91-2.8-5.51-1.35-13.3-11.11-20.85-2.51-1.94-5.96-3.5-8.83-4.87-3.48-2.63-5.32-10.67-14.92-15.83-4.62-2.48-17.17-5.68-23.75-9.13-3.26-.45-6.74-1.49-10.05-.91-6.69-7.87-16.93-7.47-24.05-.3-12-.7-24.06,2.93-34.1,9.44-14.44,15.85-18.02,5.33-28.77,22.07-4.99,7.78-8.91,17.01-10.05,26.18-1.68,4.41-8.19,6.62-9.74,20.7-1.43,12.92-.84,28.91,7.31,39.58.31,8.85,1.71,17.61,7,24.96,4.77,6.62,11.59,8.35,16.9,14.46,13.42,7.8,16.36,15.29,33.18,20.09,16.74,4.78,13.07-4.96,26.79-3.65,1.12.11,3.19.98,4.41,1.22q6.32,7.15,12.63,14.31c1.36,1.09,5.6,2.28,5.63,2.59.08.9-2.55.24-2.44,1.37-38.1,6.4-85.95-8.08-108.38-40.95C-8.82,129.9-5.73,72.09,26.54,35.55c44.99-50.96,130.59-45.83,168.96,7,20.76,28.58,24.27,66.72,14,100.01Z"/>
        <path class="cls-7" d="m193.37,135.87c-.09.26-.17,1.16-.3,1.67.32.51.87.44.91.61,2.73,10.37,2.89,26.67,3.35,28.01.16.46.95.38.91.76-11.48,18.45-25.84,29.01-45.97,36.84-.13-.72,1.43-.74.91-2.28-.21-.61-7.53-8.61-8.98-9.29-1.08-.5-2.79.55-2.89-.91,2.45-.95,6.72-3.45,9.89-4.57,11.79-4.16,13.63-.97,24.51-12.63,5.46-5.85,16.25-19.84,16.74-27.7.48-7.65-4.27-9.38.91-10.5Z"/>
        <path class="cls-6" d="m141.31,191.27c.1,1.46,1.81.41,2.89.91,1.45.68,8.77,8.67,8.98,9.29.52,1.54-1.04,1.56-.91,2.28-3.19,1.24-6.51,2.13-9.59,3.65l-15.68,3.65c-.11-1.13,2.52-.47,2.44-1.37-.03-.31-4.28-1.5-5.63-2.59q-6.32-7.15-12.63-14.31c10.76,2.06,13.51,4.73,26.49,0,1.21-.44,2.42-1.04,3.65-1.52Z"/>
        <path class="cls-6" d="m209.5,142.56c-.92,2.99-1.86,5.98-2.74,8.98-2.81,5.2-5.39,10.34-8.52,15.37.04-.38-.76-.31-.91-.76-.46-1.34-.62-17.64-3.35-28.01-.04-.17-.59-.1-.91-.61.13-.52.21-1.41.3-1.67.11-.33.41-.61.61-.91,1.18-1.78,2.79-1.39,4.57-7.92,2.31.78,7.72,9.6,9.13,12.33.86,1.66.79,3.03,1.83,3.2Z"/>
        <g>
          <g>
            <path class="cls-3" d="m193.98,134.95c-.2.3-.49.58-.61.91-5.18,1.12-.43,2.86-.91,10.5-.49,7.87-11.28,21.85-16.74,27.7-10.88,11.66-12.72,8.48-24.51,12.63-3.17,1.12-7.45,3.61-9.89,4.57-1.23.48-2.44,1.08-3.65,1.52-7.58-10.66-24.22-9.26-33.79-17.2.44-.72,5.47,1.96,6.39,1.07,17.49,4.18,37.87,1.87,50.54-12.03,17.6-19.3,12.65-50.35,3.04-72.3,2.22,1.74,1.56-.57,4.26,2.59,1.68,1.96,3.99,7.22,5.48,9.44,6.85,10.17,15.08,19.45,20.4,30.6Z"/>
            <g>
              <path class="cls-9" d="m199.15,121.56c-5.15-7.02-7.23-2.68-5.48.15,1.09,1.76,5.21,2.74,5.48.15-.05.26.81-.04-.61,5.18-1.77,6.53-3.39,6.14-4.57,7.92-5.31-11.15-13.55-20.43-20.4-30.6-1.49-2.22-3.8-7.48-5.48-9.44-2.7-3.15-2.04-.85-4.26-2.59-11.99-27.4-50.59-71.05-84.02-61.5-5.9,1.69-7.53,3.93-10.5,9.13-4.83-2.66-8.01-1.75-12.03,1.52-12.55,10.22-14.09,33.43-12.79,48.25,2.82,32,23.54,68.92,53.58,82.65,3.78,1.73,8.14,3.3,12.18,4.26-.93.89-5.96-1.79-6.39-1.07,9.57,7.94,26.22,6.54,33.79,17.2-12.97,4.73-15.73,2.06-26.49,0-1.23-.24-3.29-1.11-4.41-1.22-13.72-1.31-10.05,8.44-26.79,3.65-16.83-4.81-19.76-12.29-33.18-20.09-5.31-6.11-12.13-7.84-16.9-14.46-5.3-7.36-6.69-16.11-7-24.96-8.14-10.66-8.73-26.65-7.31-39.58,1.55-14.08,8.06-16.29,9.74-20.7,1.14-9.17,5.05-18.4,10.05-26.18,10.75-16.74,14.33-6.22,28.77-22.07,10.04-6.51,22.09-10.14,34.1-9.44,7.12-7.17,17.36-7.57,24.05.3,3.31-.58,6.79.46,10.05.91,6.58,3.46,19.13,6.65,23.75,9.13,9.6,5.16,11.43,13.21,14.92,15.83,2.87,1.37,6.32,2.93,8.83,4.87,9.77,7.55,8.31,15.34,11.11,20.85,15.25,18.16,12.13,30.48,8.22,51.91Z"/>
              <g>
                <path class="cls-8" d="m199.15,121.56c-.02.1.02.21,0,.3-.27,2.59-4.39,1.61-5.48-.15-1.75-2.84.33-7.17,5.48-.15Z"/>
                <path class="cls-1" d="m51.35,167.22c4.88-1.64,7.28,8.51,1.22,6.09-2.42-.97-3.17-5.43-1.22-6.09Z"/>
                <path class="cls-1" d="m69.92,173.01c4.27-1.49,6.72,6.66,1.52,5.78-2.31-.39-3.69-5.03-1.52-5.78Z"/>
                <path class="cls-8" d="m36.13,151.7c2.94-.42,3.64,2.91,1.52,3.96-4.34,2.14-4.74-3.5-1.52-3.96Z"/>
                <path class="cls-1" d="m140.24,24.44c2.42-.12,3.25,3.5.91,3.96-3.22.63-3.9-3.81-.91-3.96Z"/>
                <path class="cls-1" d="m94.88,180.92c3.52-1.09,3.14,3.69.91,3.96-2.46.29-2.91-3.34-.91-3.96Z"/>
                <g>
                  <path class="cls-1" d="m171.3,56.41c4.4-1.15,7.18,6.98,1.22,5.78-2.68-.54-3.69-5.14-1.22-5.78Z"/>
                  <path class="cls-10" d="m172.82,48.8c2.52-.58,2.83,3.67.61,3.96-2.46.32-2.4-3.54-.61-3.96Z"/>
                </g>
                <path class="cls-17" d="m142.37,48.19c1.69-.52,2.1,1.94,1.22,2.44-1.86,1.05-2.8-1.95-1.22-2.44Z"/>
                <g>
                  <path class="cls-16" d="m175.86,83.2c3.13-.99,3.64,4.25.3,3.65-1.84-.33-1.73-3.2-.3-3.65Z"/>
                  <path class="cls-7" d="m170.38,74.37c1.81-.53,2.26,2.3.91,2.74-2.2.72-2.31-2.33-.91-2.74Z"/>
                  <path class="cls-5" d="m165.51,73.76c1.54-.18,1.87,2.38.61,2.74-1.69.47-2.26-2.55-.61-2.74Z"/>
                  <path class="cls-5" d="m32.78,130.39c1.49-.43,1.83,1.41.91,1.83-1.48.68-2.23-1.45-.91-1.83Z"/>
                  <path class="cls-11" d="m186.52,86.85c1.24-.25,1.44,1.43.61,1.83-1.3.62-1.76-1.59-.61-1.83Z"/>
                </g>
              </g>
            </g>
          </g>
          <g>
            <path class="cls-2" d="m163.84,92.33c9.61,21.95,14.56,53-3.04,72.3-12.67,13.9-33.05,16.2-50.54,12.03-4.04-.96-8.4-2.54-12.18-4.26.04-2.99-1.2-3.72-.3-5.02-.67-.15-.66-.48-.91-.76,2.35,1.02,4.61,2.11,7,3.04,8.65,3.4,18.1,5.28,27.4,3.65,6.98-1.83,15.67-4.37,20.4-10.2,2.73-3.36,1.72-3.31,1.83-3.5.64-1.18,1.28-2.43,1.83-3.65,12.37-27.77,6.89-57.6-10.2-81.89l-1.98.61c-3.29-6.33-6.57-12.68-11.26-18.11-9.84-11.38-34.62-26.83-49.93-25.12l-2.13-.61c33.43-9.55,72.03,34.09,84.02,61.5Z"/>
            <path class="cls-8" d="m58.81,41.49c-6.18,4.12-8.44,18.79-8.22,25.73.69,21.56,10.74,44.62,23.75,61.65-6.12-1.19-2.38,4.52-3.81,5.18-1.61.74-2.44-2.66-3.81-3.04-13.73-20.76-20.43-47.65-16.74-72.3-9.61,33.35,6.08,76.05,32.57,97.88,4.98,4.98,13.32,8.96,14.31,10.05.25.28.25.61.91.76-.9,1.3.34,2.03.3,5.02-30.04-13.74-50.76-50.66-53.58-82.65-1.31-14.82.24-38.03,12.79-48.25.74.46,1.16-1.59,1.52,0Z"/>
            <path class="cls-1" d="m143.14,74.67c-1.6,1.98-2.04,1.42-2.13,1.52-.34.03-.26-.15-.3-.3-1.49-5.48-10.47-17.21-14.77-21.31-6.02-5.74-17.19-11.79-24.96-14.92-7.84-2.01-15.8-6.64-23.9-6.7,2.05-.96,1.93-1.19,4.87-1.52,15.31-1.71,40.09,13.73,49.93,25.12,4.7,5.44,7.97,11.79,11.26,18.11Z"/>
            <path class="cls-14" d="m84.38,152c3.84,3.42,18.19,13.73,22.53,14.61v.3c-.96-.02-2.96,1.92-3.04,2.74-2.39-.94-4.65-2.03-7-3.04-.98-1.08-9.33-5.07-14.31-10.05-5.32-5.32-2.24-2.87-1.22-4.72.04-.07-.64-1.37.15-1.67.86-.33,2.03,3.12,2.89,1.83Z"/>
            <path class="cls-6" d="m106.91,166.92c.93.02,7.68,3.06,10.96,3.96,4.44,1.21,8.86,1.82,13.4,2.44-9.3,1.63-18.75-.25-27.4-3.65.08-.82,2.08-2.76,3.04-2.74Z"/>
            <path class="cls-8" d="m133.39,152.61c2.49,4.99,3.69,6.49-.15,8.52-.18.09-3.86,1.56-3.35.61-1.61,2.73-11.53.91-3.5,3.81-1.41,6.28-14.55-.21-19.48,1.07-4.34-.88-18.69-11.19-22.53-14.61-6.4-5.7-12.92-13.84-17.66-21.01,1.36.38,2.19,3.78,3.81,3.04,1.43-.65-2.32-6.37,3.81-5.18,5.73,7.51,12.95,14.45,21.16,19.18,3.7,2.13,22.74,10.48,25.88,10.66,9.8.55,5.35-17.59-2.59-29.07-6.12-8.86-13.94-13.61-18.27-19.48-4.34-9.47-12.13-16.61-17.66-25.27-3.16-4.96-5.32-10.51-9.13-15.98,1.28,0,.4-2.1.3-2.89-.02-.21.66-.11.61-.3-.3-1.23-13.92-17.66-16.44-19.03,0-1.89,1.29-3.65,1.52-5.48,3.43-1.51,4.12,1.44,3.65,2.59-.64,1.59-1.36-1.35-2.59-.76-2.54,1.22,2.26,2.59,2.44,2.74.39.32,6.55,7.05,6.85,7.46,2.61,3.51,10.09,19.56,16.74,29.23,6.99,7.19,12.68,18.19,17.35,24.36,9.1,12.01,15.94,13.9,23.14,35.92,1.7,2.99,4.68,7.06,6.09,9.89Z"/>
            <g>
              <path class="cls-15" d="m79.81,30.83l2.13.61c-2.94.33-2.82.56-4.87,1.52-9.33,4.38.22,3.07,7.61,11.72,3.88,4.54,6.38,11.66,17.05,22.07l-.3.91c-2.79-3.28-6.13-6.16-8.83-9.59-6.43-8.19-8.29-15.6-19.33-20.85-1.55.01-3.88,10.52-3.81,12.33,10.82,8.12,13.87,22.14,20.7,31.66,2.48,3.45,6.02,5.96,8.52,9.44,3.3,4.58,5.13,9.86,9.74,15.68,5.48,6.9,4.02,3.71,5.48,5.02.81.72,10.28,14.25,13.4,17.05,3.15,10.53,3.04,22.15,15.07,26.03-4.76-8.93-7.35-18.62-10.5-28.16-5.05-5.34-14.78-20.23-21.92-21.16-3.6-5.32-5.73-11.46-9.13-16.9-6.2-9.91-12.18-13.66-17.05-29.83-1.61-5.35-2.84-9.07,0-5.48,1.53,1.93,5.05,11.89,7,15.53,4.74,8.85,15.18,19.99,19.79,32.27l1.98,1.67c1.12.25,2.33.33,3.35.91,1.1.63,15.67,17.14,16.9,19.03,8.21,12.64,6.08,31.46,20.7,37.29-.1.19.9.14-1.83,3.5-4.73,5.83-13.41,8.37-20.4,10.2-4.54-.62-8.96-1.22-13.4-2.44l-1.37-1.52c4.64.22,9.37.64,14,0,.58-.08,6.38-1.4,6.7-1.52,1.89-.75,6.22-5.02,5.63-7.15-.17-.61-7.71-8.29-9.44-8.07-1.41-2.83-4.39-6.91-6.09-9.89-7.2-22.02-14.04-23.92-23.14-35.92-4.67-6.16-10.37-17.16-17.35-24.36-6.66-9.66-14.14-25.72-16.74-29.23-.3-.41-6.46-7.14-6.85-7.46-.18-.15-4.97-1.52-2.44-2.74,1.22-.59,1.94,2.35,2.59.76.47-1.15-.22-4.09-3.65-2.59-.59.26-.87.28-.91.3-.36-1.59-.79.46-1.52,0,4.01-3.27,7.2-4.19,12.03-1.52,2.97-5.2,4.6-7.45,10.5-9.13Z"/>
              <path class="cls-9" d="m101.43,67.67c3.97,4.65,9.19,11.23,13.09,15.37,5.23,5.55,14.37,12.55,18.27,18.27,4.03,5.91,5.81,14.62,12.48,21.31,1.12,3.71,1.23,8.07,2.13,11.72,2.05,8.34,4.23,13.87,7.92,21.62-.54,1.22-1.19,2.47-1.83,3.65-14.62-5.84-12.49-24.65-20.7-37.29-1.23-1.89-15.79-18.39-16.9-19.03-1.02-.58-2.23-.67-3.35-.91l-1.98-1.67c-4.61-12.28-15.05-23.42-19.79-32.27-1.95-3.64-5.48-13.6-7-15.53-2.84-3.59-1.61.13,0,5.48,4.86,16.17,10.85,19.93,17.05,29.83,3.4,5.44,5.53,11.57,9.13,16.9-1.56-.2-.72.53-1.52,1.22-4.62-5.82-6.44-11.1-9.74-15.68-2.51-3.48-6.05-5.98-8.52-9.44-6.83-9.53-9.89-23.55-20.7-31.66-.07-1.81,2.25-12.32,3.81-12.33,11.04,5.25,12.9,12.66,19.33,20.85,2.69,3.43,6.04,6.31,8.83,9.59Z"/>
              <path class="cls-11" d="m109.95,105.12c7.14.93,16.87,15.82,21.92,21.16,3.15,9.54,5.75,19.23,10.5,28.16-12.03-3.88-11.92-15.5-15.07-26.03-3.11-2.8-12.59-16.32-13.4-17.05-1.46-1.32,0,1.88-5.48-5.02.81-.68-.04-1.42,1.52-1.22Z"/>
            </g>
            <path class="cls-8" d="m147.4,134.34c-.9-3.65-1.01-8.01-2.13-11.72-6.67-6.69-8.45-15.4-12.48-21.31-3.9-5.72-13.04-12.72-18.27-18.27-3.9-4.14-9.12-10.72-13.09-15.37l.3-.91c6.45,4.12,10.89,10.34,16.29,15.53,2.7,2.6,6.14,4.68,8.83,7.31,10.29,10.06,11.06,19.39,19.64,30.6.3,4.72,1.41,9.41.91,14.16Z"/>
            <path class="cls-2" d="m117.87,170.88c-3.28-.9-10.03-3.94-10.96-3.96v-.3c4.93-1.28,18.07,5.21,19.48-1.07-8.02-2.89,1.89-1.07,3.5-3.81-.52.95,3.17-.51,3.35-.61,3.84-2.04,2.64-3.54.15-8.52,1.73-.23,9.27,7.46,9.44,8.07.58,2.13-3.75,6.41-5.63,7.15-.32.13-6.11,1.44-6.7,1.52-4.63.64-9.37.22-14,0l1.37,1.52Z"/>
            <path class="cls-9" d="m66.72,130.99c4.74,7.17,11.26,15.3,17.66,21.01-.86,1.29-2.04-2.15-2.89-1.83-.79.3-.11,1.6-.15,1.67-1.02,1.85-4.11-.6,1.22,4.72-26.49-21.82-42.19-64.53-32.57-97.88-3.69,24.65,3.01,51.54,16.74,72.3Z"/>
            <g>
              <path class="cls-4" d="m77.07,32.96c8.09.06,16.06,4.69,23.9,6.7,7.77,3.13,18.94,9.18,24.96,14.92,4.3,4.1,13.27,15.83,14.77,21.31-1.56-2.79-8,9.2-7.92,9.89.12.95,1.68,2.07,3.04.91.45-.38,4.21-9.41,5.18-10.5.09-.1.53.46,2.13-1.52l1.98-.61c17.09,24.3,22.57,54.12,10.2,81.89-3.68-7.74-5.87-13.27-7.92-21.62.5-4.75-.61-9.44-.91-14.16-8.58-11.21-9.35-20.54-19.64-30.6-2.69-2.63-6.13-4.71-8.83-7.31-5.39-5.19-9.84-11.41-16.29-15.53-10.66-10.41-13.17-17.53-17.05-22.07-7.39-8.65-16.95-7.34-7.61-11.72Z"/>
              <path class="cls-15" d="m112.54,49.1c1.2-.36,3.79-.22,3.2,1.37-.26.7-8.86,11.09-9.44,11.57-1.84,1.51-3.15-.47-2.44-2.44.28-.78,7.96-10.29,8.68-10.5Z"/>
              <path class="cls-15" d="m150.59,97.81c-.3,1.37-3.99,9.84-4.41,10.2-1.52,1.27-3.61.14-3.35-1.83.06-.43,3.93-7.33,4.26-7.61,1.19-.99,2.38.02,3.5-.76Z"/>
            </g>
            <path class="cls-15" d="m140.7,75.89c.04.15-.03.34.3.3-.96,1.1-4.73,10.12-5.18,10.5-1.36,1.16-2.92.04-3.04-.91-.09-.69,6.36-12.68,7.92-9.89Z"/>
            <g>
              <path class="cls-13" d="m58.2,46.66c0,4.81,12.24,17.51,15.53,22.22,3.81,5.47,5.97,11.03,9.13,15.98,5.53,8.66,13.31,15.8,17.66,25.27,4.32,5.87,12.15,10.63,18.27,19.48,7.94,11.49,12.39,29.62,2.59,29.07-3.14-.18-22.18-8.52-25.88-10.66-8.21-4.73-15.43-11.67-21.16-19.18-13.01-17.03-23.05-40.09-23.75-61.65-.22-6.93,2.04-21.6,8.22-25.73.04-.03.32-.04.91-.3-.23,1.83-1.52,3.59-1.52,5.48Z"/>
              <path class="cls-15" d="m91.53,113.64c1.94-.15,5.12,1.14,4.41,3.5-.25.85-14.8,7.93-15.68,8.07-2.96.46-2.3-4.28-.3-6.09,1-.91,10.37-5.38,11.57-5.48Z"/>
              <path class="cls-15" d="m76.92,92.94c1.7.07,3.59,1.9,3.5,2.89-.07.8-13.05,7.99-13.85,8.07-2.2.2-2.82-3.27.3-6.09,1.41-1.27,8.31-4.94,10.05-4.87Z"/>
            </g>
            <path class="cls-8" d="m73.72,68.89c-3.28-4.71-15.53-17.41-15.53-22.22,2.52,1.37,16.14,17.8,16.44,19.03.05.2-.63.1-.61.3.09.8.98,2.89-.3,2.89Z"/>
          </g>
        </g>
      </g>
      <g>
        <rect class="cls-12" x="254.94" y=".46" width="6.1" height="207"/>
        <path class="cls-12" d="m486.18,131.61c2.5-13.18,5.06-26.36,7.46-39.56.89-4.9,1.48-9.86,2.12-14.81.53-4.06,2.61-5,6.24-3.46,5.5,2.33,8.73,6.96,8.06,12.34-2.76,22.15-7.45,43.88-14.75,65-.81,2.35-1.63,4.8-3.01,6.82-1.41,2.07-3.87,5.41-5.23,5.12-2.76-.58-5.77-2.75-7.4-5.14-1.99-2.93-2.66-6.75-3.9-10.18-3.97-10.93-7.94-21.86-11.95-32.78-.32-.86-.98-1.6-2.1-3.39-2.32,10.51-4.29,20.01-6.56,29.44-1.51,6.29-3.21,12.55-5.25,18.69-1.41,4.24-3.16,4.43-6.52,1.48-4.74-4.17-6.61-8.92-5.15-15.52,5.05-22.87,9.66-45.83,14.3-68.79.78-3.86,2.91-4.82,5.38-2.35,3.78,3.79,8.02,7.83,9.97,12.61,5.13,12.6,9.11,25.67,13.61,38.53.74,2.11,1.83,4.11,2.75,6.15.64-.06,1.29-.13,1.93-.19Z"/>
        <path class="cls-12" d="m401.56,132.25c-1.11-.08-1.28-.11-1.44-.1-12.1.73-20.56,5.74-22.96,18.64-.59,3.16-2.68,6.04-4.08,9.06-1.69,3.67-4.16,3.67-7.29,1.76-6-3.68-7.45-7.29-4.73-13.74,1.84-4.36,3.56-8.02-.42-12.55-2.99-3.4-1.66-7.24,2.97-8.52,6.77-1.88,9.19-6.49,11.08-12.5,3.08-9.81,6.73-19.45,10.18-29.15,1.96-5.5,12.34-12.67,17.81-11.45,2.22.49,4.91,3.31,5.55,5.59,2.39,8.42,4.05,17.06,5.91,25.63.35,1.62.59,3.32.5,4.96-.31,5.82,1.77,9.01,8.16,8.51,1.07-.08,3.2,1.45,3.21,2.27.02,1.33-1.08,3.65-2.08,3.87-8.71,1.93-7.99,8.35-7.87,14.95.12,6.12-.29,12.3-1.05,18.37-.23,1.84-2.44,3.42-3.74,5.13-1.81-1.43-4.76-2.55-5.23-4.33-1.6-6.07-2.34-12.36-3.37-18.57-.43-2.58-.74-5.18-1.11-7.82Zm-3.37-37.3l-1.4-.16c-2.6,7.97-5.2,15.94-8.08,24.76,3.67-.32,6.31-.35,8.86-.86,1.02-.21,2.66-1.53,2.61-2.25-.5-7.17-1.29-14.33-1.99-21.49Z"/>
        <path class="cls-12" d="m624.55,131.63c-5.44,1.44-10.33,2.4-14.95,4.1-2.01.74-4.1,2.68-5.04,4.62-3.04,6.28-5.55,12.81-8.28,19.24-1.68,3.97-4.3,4.01-7.6,1.92-5.76-3.64-7.23-7.25-4.64-13.41,1.89-4.51,3.72-8.32-.42-13.03-2.93-3.33-1.46-7.07,3.35-8.38,6.66-1.82,8.9-6.42,10.75-12.21,3.14-9.81,6.75-19.48,10.2-29.19,1.97-5.55,12.15-12.64,17.77-11.6,2.1.39,4.79,2.98,5.39,5.09,2.43,8.42,4.17,17.05,6.11,25.62.29,1.29.33,2.65.36,3.98.13,5.83.81,11.04,8.83,10.08.87-.1,2.69,1.38,2.75,2.23.09,1.21-1.01,2.53-1.67,3.76-.13.24-.55.41-.86.47-7.55,1.51-7.74,6.87-7.5,13.11.25,6.62-.26,13.31-1.01,19.9-.21,1.81-2.47,3.39-3.8,5.07-1.8-1.46-4.72-2.62-5.19-4.42-1.59-6.08-2.33-12.38-3.35-18.61-.42-2.57-.74-5.16-1.19-8.32Zm-3.27-36.6c-.48-.07-.95-.14-1.43-.21-2.59,7.93-5.18,15.87-8.05,24.68,3.6-.31,6.41-.36,9.11-.9.95-.19,2.42-1.64,2.37-2.43-.5-7.06-1.29-14.1-1.99-21.15Z"/>
        <path class="cls-12" d="m544.84,135.61c1.25-3.2,2.45-6.41,3.76-9.59,5.33-12.91,10.61-25.84,16.1-38.68,1.43-3.34,3.34-6.53,5.37-9.56,3.4-5.09,5.28-5.5,10.34-2.9,4.8,2.47,5.86,4.79,3.89,10.22-1.64,4.52-3.7,8.9-5.77,13.25-7.64,16.07-15.31,32.14-23.1,48.14-2.32,4.77-4.91,9.44-7.75,13.92-2.07,3.26-5.51,3.73-8.09,1-2.75-2.92-5.88-6.37-6.71-10.07-5.04-22.53-9.6-45.16-13.93-67.84-.58-3.06,1.02-6.54,1.61-9.83,3.49,1.48,7.51,2.28,10.38,4.56,7.41,5.89,7.18,14.92,8.22,23.28,1.4,11.34,2.69,22.7,4.02,34.05.55.02,1.1.03,1.66.05Z"/>
        <path class="cls-12" d="m713.6,72.82c1.6.7,4.8,1.17,6.41,3.01,2.04,2.33,3.8,5.82,3.7,8.75-.05,1.45-4.39,3.08-7.01,4.07-7.43,2.8-15.16,4.88-22.41,8.08-5.24,2.31-5.32,4.63-1.23,8.61,5.02,4.87,10.55,9.23,15.39,14.27,14,14.6,11.59,30.28-5.99,39.63-2.89,1.53-6.16,2.6-9.38,3.21-12.06,2.3-23.44.97-31.96-8.85-2.39-2.76-3.74-7.04-4.11-10.77-.45-4.53,3.17-6.13,6.98-3.51,2.87,1.98,5.42,4.44,8.27,6.45,8.86,6.26,21.36,4.19,27.44-4.77.95-1.41.85-4.18.16-5.88-.83-2.05-2.7-3.76-4.32-5.41-5.36-5.48-10.94-10.76-16.22-16.32-8.54-8.98-7.68-19.66,2.17-27.42,9.08-7.14,19.31-11.63,32.1-13.15Z"/>
        <path class="cls-12" d="m345.26,135.46c1.93,4.68,1.06,8.01-1.77,10.84-9.89,9.9-21.91,15.48-35.72,17.25-1.25.16-2.62-.32-3.89-.67-13.49-3.72-23.5-19.87-20.39-33.51,5.07-22.21,16.82-39.98,36.06-52.51,1.52-.99,3.22-1.82,4.95-2.33,3.96-1.17,8.31-3.04,11.76.52,4.26,4.4,8.15,9.28,6.84,16.03-.64.34-.95.65-1.21.61-11.88-2.03-19.53,4.71-26.35,12.89-6.77,8.13-12.32,16.99-14.72,27.48-.4,1.77-.66,3.61-.68,5.42-.08,6.84,2.48,9.68,9.08,8.29,10.02-2.11,19.85-5.17,29.73-7.92,2.02-.56,3.94-1.49,6.3-2.4Z"/>
        <path class="cls-12" d="m500.73,42.93c1.18-10.25,5.86-21.64,15.8-30.57,5.21-4.68,10.96-7.22,17.77-4.16,7.09,3.18,10.4,9.44,10.8,16.75.84,15.48-6.12,27.29-18.73,35.81-5.19,3.5-11.04,4.91-16.99,1.79-5.61-2.94-8.92-9.66-8.66-19.62Zm34.3-15.84c-.37-1.85-.57-4.37-1.39-6.67-1.5-4.2-4.82-5.32-8.19-2.34-9.47,8.37-14.42,19.04-14.01,31.74.18,5.5,3.59,7.1,8.19,4.03,9.25-6.16,14.52-14.84,15.4-26.76Z"/>
        <path class="cls-12" d="m357.75,63.91c-6.02-2.31-7.95-5.84-6.81-11.58.77-3.9,1.65-7.79,2.46-11.68.02-.11-.15-.26-.62-1.04-3.89.81-8.11,1.44-12.15,2.69-1.14.35-2.11,2.38-2.53,3.82-1.69,5.84-3.13,11.76-4.68,17.74-6.15-2.81-8.06-6.8-7.22-12.47.56-3.82.31-7.76.47-11.64.04-.97-.09-2.26.45-2.84,6.58-6.99,5.38-16.32,7.61-24.6.48-1.77,1.39-3.42,2.11-5.13,1.55,1.12,3.32,2.03,4.6,3.39,3.15,3.35,3.3,7.43,2.3,11.7-.7,3.01-1.22,6.05-1.93,9.62,4.39-.35,8.04-.34,11.54-1.06,1.32-.27,2.99-2.05,3.32-3.43,1.28-5.32,2.04-10.76,3.12-16.13.28-1.37,1.05-2.64,1.59-3.96,1.4.68,3.07,1.07,4.16,2.09,4.88,4.57,4.06,10.13,2.39,15.78-.83,2.79-2.37,5.71,1.47,7.75.24.13-.34,3.17-.97,3.36-4.18,1.23-4.65,4.63-5.49,8.05-1.58,6.43-3.37,12.81-5.18,19.59Z"/>
        <path class="cls-12" d="m420.09,12.8c-3.02.85-6.02,1.81-9.07,2.53-1.93.46-3.95.49-5.91.84q-11.78,2.12-12.32,15.34h17.06c.22.45.44.9.65,1.35-1.48,1.26-2.76,3.04-4.47,3.68-3.55,1.33-7.32,2.03-10.99,3.04-1.94.53-5.02.65-5.57,1.86-1.53,3.4-2.14,7.26-2.74,11-.07.41,2.32,1.83,3.45,1.71,5.93-.64,11.82-1.62,17.72-2.48.94-.14,1.88-.21,3.95.69-1.26,1.75-2.15,4.08-3.84,5.16-7.18,4.59-15.18,6.62-23.71,6.17-5.61-.29-9.47-5.91-8.14-11.85,2.22-9.87,4.62-19.7,6.9-29.56.34-1.45.52-2.94.65-4.43.76-8.65,1.43-9.48,10.3-9.51,7.13-.02,14.26.38,21.37.84,1.59.1,3.1,1.25,4.65,1.91.02.57.03,1.13.05,1.7Z"/>
        <path class="cls-12" d="m724.19,13.35c-4.78.9-9.55,1.85-14.34,2.68q-12.25,2.12-12.81,15.28h16.75c.29.43.58.85.87,1.28-1.34,1.3-2.47,3.18-4.07,3.79-3.7,1.4-7.63,2.92-11.49,3.01-4.47.1-5.95,2.02-6.97,5.89-2.4,9.13-1.88,9.97,7.49,8.7,5.32-.72,10.59-1.8,15.88-2.72.33.47.66.95.99,1.42-1.48,1.7-2.66,3.89-4.49,5.03-6.94,4.33-14.61,6.3-22.81,6.04-5.88-.19-10.14-5.41-8.87-11.23,2.12-9.74,4.56-19.41,6.77-29.13.62-2.75,1.35-5.59,1.26-8.37-.16-4.67,2.37-6.42,6.34-6.41,8.3,0,16.61.24,24.9.62,1.59.07,3.13,1.25,4.7,1.91-.03.75-.06,1.5-.09,2.25Z"/>
        <path class="cls-12" d="m652.52,31.48h17.37c.25.43.51.85.76,1.28-1.42,1.28-2.64,3.12-4.31,3.71-3.89,1.37-7.97,2.8-12.02,2.97-3.89.16-5.31,1.85-6.01,5.09-.1.49-.18.99-.32,1.47-2.34,8.24-1.79,8.94,6.8,8.04,2.81-.29,5.58-.89,8.37-1.38,2.7-.47,5.4-.97,8.1-1.45.36.42.71.84,1.07,1.26-1.37,1.73-2.41,3.99-4.17,5.09-7.07,4.44-14.9,6.49-23.28,6.15-5.58-.23-9.82-5.48-8.7-11,2.73-13.51,5.57-27,8.53-40.46.26-1.16,1.8-2.91,2.76-2.92,10.09-.09,20.18.07,30.27.31.79.02,1.56,1.08,3.44,2.48-2.78,1.08-4.7,2.15-6.75,2.56-5.21,1.06-10.45,1.93-15.72,2.66-3.08.43-4.74,1.53-4.73,5.01,0,2.77-.86,5.54-1.48,9.12Z"/>
        <path class="cls-12" d="m489.93,18.85c-9.55-2.88-14.4,3.39-18.71,9.45-3.51,4.93-6.4,10.52-8.45,16.22-2.31,6.46.11,9.5,6.77,8.57,5.99-.84,11.76-3.22,17.66-4.77,1.43-.38,3.01-.17,4.53-.23-.33,1.53-.15,3.58-1.08,4.51-6.78,6.74-14.51,11.88-24.58,11.28-8.41-.5-16.06-11.17-14.22-20.75,2.78-14.52,10.44-26.26,23.21-34.02,8.2-4.99,14.48-1.02,14.87,9.74Z"/>
        <path class="cls-12" d="m565.41,34.43c5.22-.29,9.99-.7,14.75-.75,1.62-.02,3.26.85,4.88,1.32-1.05,1.49-1.8,3.85-3.2,4.32-4.83,1.64-9.85,2.82-14.87,3.79-2.78.54-4.33,1.43-4.91,4.51-1.02,5.45-2.61,10.8-4,16.36-5.96-3.01-8.14-7-7.08-12.36,2.56-13.04,5.07-26.08,7.96-39.05.36-1.61,2.83-3.84,4.38-3.9,8.45-.28,16.92-.13,25.36.29,1.55.08,3.01,2.06,4.52,3.16-1.48,1.04-2.85,2.7-4.46,3-5.87,1.09-11.85,1.59-17.73,2.63-1.28.23-3.1,1.59-3.36,2.73-1,4.32-1.46,8.76-2.25,13.95Z"/>
        <path class="cls-12" d="m608.65,34.54c5.62-.36,10.24-.81,14.86-.86,1.56-.02,3.13.99,4.69,1.53-.92,1.4-1.56,3.61-2.81,4.04-4.67,1.6-9.48,2.93-14.35,3.73-3.43.56-5.21,1.81-5.85,5.35-.95,5.17-2.43,10.24-3.7,15.44-5.52-2.15-8.15-6.53-7.21-11.34,2.53-13.03,4.96-26.08,7.79-39.05.4-1.82,2.75-4.52,4.29-4.58,8.59-.35,17.22-.18,25.81.22,1.56.07,3.02,2.08,4.53,3.19-1.52,1-2.94,2.59-4.59,2.89-5.87,1.08-11.83,1.6-17.71,2.65-1.25.22-2.98,1.57-3.26,2.69-1.05,4.31-1.6,8.75-2.49,14.1Z"/>
        <path class="cls-12" d="m296.93,64.31c-5.22-3.74-7.1-7.35-5.65-13.01,2.39-9.31,4.01-18.82,5.9-28.25.32-1.59.33-3.24.53-5.35-2.86,0-5.34.28-7.73-.09-1.84-.28-3.92-.96-5.24-2.18-3.29-3.03-2.65-5.79,1.67-6.57,11.2-2.03,22.46-2.31,33.65.25,1.12.26,2.45.53,3.19,1.28,1.43,1.43,2.52,3.21,3.74,4.84-1.8.81-3.56,2.17-5.41,2.31-4.41.32-10.21-1.64-12.91.51-2.73,2.18-2.43,8.19-3.43,12.53-2.05,8.9-4.04,17.8-6.13,26.69-.51,2.18-1.32,4.29-2.19,7.05Z"/>
        <text class="cls-22" transform="translate(281.92 195.16)"><tspan x="0" y="0">whe</tspan><tspan class="cls-20" x="57.51" y="0">r</tspan><tspan x="66.54" y="0">e </tspan><tspan class="cls-18" x="91.53" y="0">ev</tspan><tspan x="123.36" y="0">e</tspan><tspan class="cls-23" x="140.85" y="0">r</tspan><tspan x="151.02" y="0">y cup </tspan><tspan class="cls-21" x="233.79" y="0">i</tspan><tspan x="240.36" y="0">s a </tspan><tspan class="cls-25" x="288.09" y="0">w</tspan><tspan x="310.59" y="0">ork </tspan><tspan class="cls-24" x="361.11" y="0">o</tspan><tspan x="378.6" y="0">f a</tspan><tspan class="cls-19" x="414.78" y="0">r</tspan><tspan x="424.98" y="0">t</tspan></text>
      </g>
    </g>
  </g>
</svg>