<?xml version="1.0" encoding="UTF-8"?>
<svg id="Layer_2" data-name="Layer 2" xmlns="http://www.w3.org/2000/svg" xmlns:xlink="http://www.w3.org/1999/xlink" viewBox="0 0 353.02 348.87">
  <defs>
    <style>
      .cls-1 {
        fill: #5b2c1c;
      }

      .cls-1, .cls-2, .cls-3, .cls-4, .cls-5, .cls-6, .cls-7, .cls-8, .cls-9, .cls-10, .cls-11, .cls-12, .cls-13, .cls-14, .cls-15, .cls-16 {
        stroke-width: 0px;
      }

      .cls-2 {
        fill: #30130b;
      }

      .cls-3 {
        fill: #e7d1b6;
      }

      .cls-4 {
        fill: url(#linear-gradient);
      }

      .cls-5 {
        fill: #745b41;
      }

      .cls-6 {
        fill: #c29673;
      }

      .cls-7 {
        fill: #a77958;
      }

      .cls-8 {
        fill: #462014;
      }

      .cls-9 {
        fill: #fbe8c8;
      }

      .cls-10 {
        fill: #712e22;
      }

      .cls-11 {
        fill: #deb389;
      }

      .cls-12 {
        fill: url(#linear-gradient-2);
      }

      .cls-13 {
        fill: #e3c49b;
      }

      .cls-14 {
        fill: #21110e;
      }

      .cls-15 {
        fill: #763a21;
      }

      .cls-16 {
        fill: #372e27;
      }
    </style>
    <linearGradient id="linear-gradient" x1="115.13" y1="139.56" x2="269.48" y2="170.45" gradientUnits="userSpaceOnUse">
      <stop offset="0" stop-color="#814a33"/>
      <stop offset="1" stop-color="#66311f"/>
    </linearGradient>
    <linearGradient id="linear-gradient-2" x1="196.93" y1="160.63" x2="91.26" y2="168.21" gradientUnits="userSpaceOnUse">
      <stop offset=".35" stop-color="#703723"/>
      <stop offset="1" stop-color="#925f42"/>
    </linearGradient>
  </defs>
  <g id="Layer_1-2" data-name="Layer 1">
    <g>
      <path class="cls-11" d="m343.88,234c-1.71-.27-1.58-2.52-3-5.25-2.32-4.48-11.21-18.95-14.99-20.24,2.33-8.56.92-8.07,1-8.5.03-.16-.03-.34,0-.5,6.42-35.17,11.54-55.4-13.49-85.2-4.6-9.04-2.21-21.83-18.24-34.23-4.12-3.19-9.78-5.74-14.49-8-5.72-4.31-8.73-17.52-24.49-25.98-7.58-4.08-28.18-9.32-38.98-14.99-5.35-.74-11.06-2.45-16.49-1.5-10.98-12.93-27.8-12.26-39.48-.5-19.7-1.15-39.49,4.81-55.97,15.49-23.7,26.01-29.58,8.75-47.22,36.23-8.2,12.77-14.62,27.92-16.49,42.97-2.75,7.25-13.44,10.87-15.99,33.98-2.34,21.21-1.37,47.46,11.99,64.96.52,14.53,2.8,28.9,11.49,40.98,7.83,10.87,19.02,13.71,27.73,23.74,22.03,12.81,26.85,25.09,54.47,32.98,27.47,7.85,21.45-8.14,43.97-6,1.84.18,5.23,1.61,7.25,2l20.74,23.49c2.22,1.79,9.2,3.74,9.24,4.25.14,1.48-4.18.4-4,2.25-62.53,10.51-141.08-13.26-177.9-67.21C-14.48,213.22-9.4,118.32,43.56,58.36c73.85-83.64,214.35-75.23,277.34,11.49,34.08,46.92,39.84,109.52,22.99,164.15Z"/>
      <path class="cls-7" d="m317.39,223.01c-.15.43-.28,1.9-.5,2.75.53.84,1.43.72,1.5,1,4.48,17.02,4.74,43.78,5.5,45.97.26.75,1.56.63,1.5,1.25-18.85,30.28-42.41,47.61-75.46,60.46-.21-1.19,2.35-1.21,1.5-3.75-.34-1.01-12.36-14.13-14.74-15.24-1.78-.83-4.59.9-4.75-1.5,4.02-1.57,11.03-5.66,16.24-7.5,19.35-6.82,22.37-1.59,40.23-20.74,8.97-9.61,26.68-32.56,27.48-45.47.79-12.55-7.01-15.4,1.5-17.24Z"/>
      <path class="cls-6" d="m231.94,313.96c.16,2.39,2.97.67,4.75,1.5,2.38,1.11,14.4,14.23,14.74,15.24.85,2.53-1.7,2.56-1.5,3.75-5.23,2.03-10.69,3.49-15.74,6l-25.73,6c-.18-1.85,4.14-.77,4-2.25-.05-.51-7.02-2.46-9.24-4.25l-20.74-23.49c17.66,3.38,22.18,7.76,43.47,0,1.99-.72,3.98-1.71,6-2.5Z"/>
      <path class="cls-6" d="m343.88,234c-1.51,4.9-3.06,9.82-4.5,14.74-4.61,8.54-8.85,16.97-13.99,25.24.06-.62-1.24-.5-1.5-1.25-.76-2.19-1.01-28.96-5.5-45.97-.07-.28-.97-.16-1.5-1,.22-.85.35-2.32.5-2.75.19-.55.67-1.01,1-1.5,1.93-2.92,4.59-2.28,7.5-12.99,3.78,1.29,12.67,15.76,14.99,20.24,1.41,2.73,1.29,4.98,3,5.25Z"/>
      <g>
        <g>
          <path class="cls-3" d="m318.39,221.51c-.33.49-.81.95-1,1.5-8.51,1.84-.71,4.69-1.5,17.24-.81,12.91-18.52,35.86-27.48,45.47-17.86,19.14-20.88,13.92-40.23,20.74-5.21,1.84-12.22,5.93-16.24,7.5-2.02.79-4.01,1.77-6,2.5-12.44-17.5-39.76-15.19-55.47-28.23.72-1.18,8.97,3.21,10.49,1.75,28.71,6.86,62.16,3.07,82.95-19.74,28.89-31.68,20.77-82.65,5-118.68,3.65,2.85,2.56-.93,7,4.25,2.75,3.21,6.54,11.85,8.99,15.49,11.25,16.69,24.76,31.92,33.48,50.22Z"/>
          <g>
            <path class="cls-9" d="m326.89,199.52c-8.45-11.52-11.87-4.4-8.99.25,1.79,2.9,8.56,4.5,8.99.25-.08.43,1.33-.07-1,8.5-2.91,10.72-5.56,10.08-7.5,12.99-8.72-18.3-22.23-33.54-33.48-50.22-2.45-3.64-6.24-12.28-8.99-15.49-4.43-5.18-3.34-1.4-7-4.25-19.68-44.98-83.05-116.62-137.92-100.94-9.69,2.77-12.37,6.46-17.24,14.99-7.92-4.37-13.15-2.87-19.74,2.5-20.6,16.78-23.13,54.88-20.99,79.2,4.63,52.52,38.63,113.12,87.95,135.67,6.2,2.83,13.36,5.41,19.99,7-1.52,1.46-9.78-2.93-10.49-1.75,15.71,13.04,43.03,10.74,55.47,28.23-21.3,7.76-25.82,3.38-43.47,0-2.02-.39-5.4-1.82-7.25-2-22.52-2.14-16.5,13.85-43.97,6-27.62-7.89-32.44-20.17-54.47-32.98-8.71-10.02-19.91-12.87-27.73-23.74-8.69-12.07-10.98-26.44-11.49-40.98-13.37-17.5-14.33-43.75-11.99-64.96,2.55-23.11,13.24-26.73,15.99-33.98,1.87-15.05,8.29-30.21,16.49-42.97,17.64-27.48,23.52-10.21,47.22-36.23,16.48-10.68,36.26-16.64,55.97-15.49,11.68-11.76,28.49-12.43,39.48.5,5.43-.95,11.14.76,16.49,1.5,10.79,5.67,31.39,10.91,38.98,14.99,15.75,8.47,18.77,21.68,24.49,25.98,4.71,2.25,10.37,4.81,14.49,8,16.03,12.4,13.64,25.19,18.24,34.23,25.03,29.8,19.91,50.03,13.49,85.2Z"/>
            <g>
              <path class="cls-8" d="m326.89,199.52c-.03.16.03.34,0,.5-.44,4.25-7.21,2.65-8.99-.25-2.87-4.65.54-11.77,8.99-.25Z"/>
              <path class="cls-1" d="m84.28,274.48c8.02-2.69,11.95,13.98,2,9.99-3.98-1.59-5.2-8.92-2-9.99Z"/>
              <path class="cls-1" d="m114.76,283.97c7.01-2.44,11.02,10.93,2.5,9.49-3.79-.64-6.06-8.26-2.5-9.49Z"/>
              <path class="cls-8" d="m59.3,248.99c4.83-.69,5.97,4.78,2.5,6.5-7.13,3.52-7.78-5.74-2.5-6.5Z"/>
              <path class="cls-1" d="m230.2,40.12c3.97-.19,5.34,5.74,1.5,6.5-5.28,1.04-6.39-6.26-1.5-6.5Z"/>
              <path class="cls-1" d="m155.74,296.97c5.77-1.79,5.15,6.06,1.5,6.5-4.04.48-4.78-5.48-1.5-6.5Z"/>
              <g>
                <path class="cls-1" d="m281.17,92.59c7.23-1.88,11.79,11.46,2,9.49-4.4-.88-6.06-8.44-2-9.49Z"/>
                <path class="cls-10" d="m283.66,80.09c4.13-.96,4.65,6.02,1,6.5-4.04.53-3.94-5.81-1-6.5Z"/>
              </g>
              <path class="cls-16" d="m233.69,79.09c2.78-.85,3.45,3.18,2,4-3.05,1.72-4.6-3.2-2-4Z"/>
              <g>
                <path class="cls-15" d="m288.66,136.56c5.14-1.62,5.97,6.98.5,6-3.02-.54-2.84-5.26-.5-6Z"/>
                <path class="cls-7" d="m279.67,122.07c2.97-.87,3.7,3.78,1.5,4.5-3.61,1.18-3.8-3.83-1.5-4.5Z"/>
                <path class="cls-5" d="m271.67,121.07c2.53-.29,3.07,3.91,1,4.5-2.77.78-3.71-4.18-1-4.5Z"/>
                <path class="cls-5" d="m53.8,214.01c2.44-.71,3,2.31,1.5,3-2.42,1.11-3.66-2.38-1.5-3Z"/>
                <path class="cls-11" d="m306.15,142.56c2.03-.41,2.36,2.35,1,3-2.13,1.01-2.9-2.61-1-3Z"/>
              </g>
            </g>
          </g>
        </g>
        <g>
          <path class="cls-2" d="m268.92,151.55c15.77,36.03,23.89,87-5,118.68-20.79,22.81-54.24,26.6-82.95,19.74-6.63-1.58-13.79-4.16-19.99-7,.06-4.91-1.97-6.11-.5-8.25-1.09-.24-1.08-.79-1.5-1.25,3.86,1.67,7.57,3.46,11.49,5,14.19,5.58,29.72,8.67,44.97,6,11.46-3.01,25.71-7.17,33.48-16.74,4.47-5.51,2.83-5.44,3-5.75,1.05-1.93,2.1-3.99,3-6,20.3-45.58,11.31-94.54-16.74-134.42l-3.25,1c-5.41-10.38-10.78-20.81-18.49-29.73-16.15-18.68-56.82-44.04-81.95-41.23l-3.5-1c54.87-15.68,118.23,55.96,137.92,100.94Z"/>
          <path class="cls-8" d="m96.52,68.1c-10.14,6.77-13.86,30.84-13.49,42.23,1.14,35.39,17.62,73.23,38.98,101.19-10.05-1.95-3.9,7.43-6.25,8.5-2.65,1.21-4.01-4.37-6.25-5-22.54-34.08-33.54-78.22-27.48-118.68-15.77,54.74,9.99,124.83,53.47,160.66,8.18,8.17,21.87,14.72,23.49,16.49.41.45.4,1,1.5,1.25-1.47,2.13.56,3.34.5,8.25-49.32-22.55-83.32-83.15-87.95-135.67-2.14-24.33.39-62.42,20.99-79.2,1.21.75,1.9-2.6,2.5,0Z"/>
          <path class="cls-1" d="m234.94,122.57c-2.63,3.25-3.36,2.34-3.5,2.5-.55.05-.43-.25-.5-.5-2.45-9-17.18-28.26-24.24-34.98-9.89-9.43-28.22-19.35-40.98-24.49-12.87-3.3-25.94-10.89-39.23-10.99,3.37-1.58,3.16-1.96,8-2.5,25.13-2.81,65.8,22.54,81.95,41.23,7.71,8.92,13.08,19.35,18.49,29.73Z"/>
          <path class="cls-13" d="m138.5,249.49c6.31,5.62,29.86,22.54,36.98,23.99v.5c-1.58-.04-4.86,3.15-5,4.5-3.92-1.54-7.64-3.33-11.49-5-1.62-1.78-15.31-8.32-23.49-16.49-8.74-8.73-3.68-4.71-2-7.75.07-.12-1.05-2.25.25-2.75,1.4-.54,3.33,5.12,4.75,3Z"/>
          <path class="cls-6" d="m175.48,273.98c1.52.03,12.61,5.03,17.99,6.5,7.28,1.99,14.54,2.99,21.99,4-15.26,2.68-30.78-.42-44.97-6,.14-1.34,3.42-4.53,5-4.5Z"/>
          <path class="cls-8" d="m218.95,250.49c4.09,8.19,6.05,10.64-.25,13.99-.29.16-6.34,2.56-5.5,1-2.65,4.48-18.92,1.5-5.75,6.25-2.32,10.31-23.88-.35-31.98,1.75-7.12-1.45-30.67-18.37-36.98-23.99-10.51-9.36-21.2-22.71-28.98-34.48,2.24.63,3.6,6.2,6.25,5,2.35-1.07-3.81-10.45,6.25-8.5,9.41,12.32,21.25,23.71,34.73,31.48,6.07,3.5,37.32,17.2,42.48,17.49,16.09.9,8.78-28.87-4.25-47.72-10.04-14.54-22.89-22.34-29.98-31.98-7.13-15.55-19.91-27.27-28.98-41.48-5.19-8.13-8.73-17.25-14.99-26.23,2.1,0,.65-3.44.5-4.75-.04-.34,1.08-.17,1-.5-.49-2.01-22.84-28.99-26.98-31.23,0-3.1,2.12-5.99,2.5-8.99,5.63-2.47,6.76,2.37,6,4.25-1.06,2.6-2.24-2.21-4.25-1.25-4.17,1.99,3.7,4.26,4,4.5.64.53,10.75,11.58,11.24,12.24,4.28,5.76,16.56,32.11,27.48,47.97,11.47,11.8,20.82,29.86,28.48,39.98,14.94,19.71,26.17,22.82,37.98,58.97,2.79,4.9,7.68,11.59,9.99,16.24Z"/>
          <g>
            <path class="cls-14" d="m131,50.61l3.5,1c-4.83.54-4.63.92-8,2.5-15.32,7.2.36,5.04,12.49,19.24,6.37,7.45,10.48,19.14,27.98,36.23l-.5,1.5c-4.58-5.38-10.07-10.11-14.49-15.74-10.56-13.44-13.61-25.61-31.73-34.23-2.55.02-6.36,17.27-6.25,20.24,17.75,13.32,22.76,36.33,33.98,51.97,4.07,5.67,9.87,9.78,13.99,15.49,5.41,7.52,8.41,16.19,15.99,25.73,8.99,11.33,6.59,6.09,8.99,8.25,1.32,1.19,16.87,23.39,21.99,27.98,5.17,17.29,5,36.35,24.74,42.72-7.81-14.65-12.06-30.56-17.24-46.22-8.29-8.76-24.27-33.21-35.98-34.73-5.92-8.74-9.41-18.81-14.99-27.73-10.17-16.26-20-22.42-27.98-48.97-2.64-8.79-4.66-14.88,0-8.99,2.5,3.16,8.3,19.51,11.49,25.49,7.77,14.53,24.92,32.81,32.48,52.97l3.25,2.75c1.84.4,3.82.54,5.5,1.5,1.81,1.04,25.72,28.13,27.73,31.23,13.48,20.75,9.99,51.63,33.98,61.21-.17.31,1.47.24-3,5.75-7.77,9.57-22.02,13.73-33.48,16.74-7.45-1.01-14.71-2.01-21.99-4l-2.25-2.5c7.61.36,15.39,1.04,22.99,0,.96-.13,10.47-2.29,10.99-2.5,3.09-1.23,10.2-8.24,9.24-11.74-.27-.99-12.65-13.61-15.49-13.24-2.32-4.65-7.21-11.34-9.99-16.24-11.81-36.15-23.04-39.26-37.98-58.97-7.66-10.11-17.01-28.17-28.48-39.98-10.93-15.86-23.2-42.21-27.48-47.97-.5-.67-10.6-11.72-11.24-12.24-.3-.24-8.16-2.5-4-4.5,2.01-.96,3.19,3.85,4.25,1.25.76-1.88-.37-6.72-6-4.25-.98.43-1.43.46-1.5.5-.6-2.6-1.29.75-2.5,0,6.59-5.37,11.81-6.87,19.74-2.5,4.87-8.53,7.55-12.22,17.24-14.99Z"/>
            <path class="cls-9" d="m166.48,111.08c6.51,7.64,15.08,18.43,21.49,25.24,8.58,9.11,23.59,20.6,29.98,29.98,6.61,9.7,9.54,23.99,20.49,34.98,1.83,6.08,2.03,13.25,3.5,19.24,3.36,13.69,6.95,22.77,12.99,35.48-.89,2.01-1.95,4.06-3,6-23.99-9.58-20.5-40.47-33.98-61.21-2.01-3.1-25.92-30.19-27.73-31.23-1.67-.96-3.66-1.1-5.5-1.5l-3.25-2.75c-7.56-20.16-24.71-38.44-32.48-52.97-3.2-5.97-8.99-22.32-11.49-25.49-4.66-5.88-2.64.21,0,8.99,7.98,26.55,17.81,32.71,27.98,48.97,5.58,8.93,9.08,18.99,14.99,27.73-2.56-.33-1.17.88-2.5,2-7.58-9.55-10.58-18.22-15.99-25.73-4.12-5.72-9.92-9.82-13.99-15.49-11.22-15.64-16.23-38.65-33.98-51.97-.12-2.97,3.7-20.22,6.25-20.24,18.12,8.62,21.17,20.79,31.73,34.23,4.42,5.63,9.91,10.36,14.49,15.74Z"/>
            <path class="cls-11" d="m180.47,172.54c11.71,1.52,27.69,25.97,35.98,34.73,5.18,15.66,9.43,31.57,17.24,46.22-19.74-6.37-19.56-25.44-24.74-42.72-5.11-4.59-20.66-26.79-21.99-27.98-2.4-2.16,0,3.09-8.99-8.25,1.32-1.12-.06-2.33,2.5-2Z"/>
          </g>
          <path class="cls-8" d="m241.94,220.51c-1.47-5.99-1.67-13.16-3.5-19.24-10.95-10.99-13.88-25.28-20.49-34.98-6.4-9.38-21.4-20.88-29.98-29.98-6.41-6.8-14.98-17.6-21.49-25.24l.5-1.5c10.59,6.76,17.88,16.97,26.73,25.49,4.43,4.27,10.07,7.68,14.49,11.99,16.89,16.51,18.15,31.83,32.23,50.22.49,7.75,2.32,15.44,1.5,23.24Z"/>
          <path class="cls-2" d="m193.47,280.48c-5.38-1.47-16.47-6.46-17.99-6.5v-.5c8.1-2.1,29.66,8.56,31.98-1.75-13.17-4.75,3.1-1.76,5.75-6.25-.85,1.56,5.2-.84,5.5-1,6.3-3.35,4.34-5.8.25-13.99,2.84-.37,15.22,12.25,15.49,13.24.96,3.5-6.15,10.52-9.24,11.74-.52.21-10.04,2.37-10.99,2.5-7.6,1.04-15.37.36-22.99,0l2.25,2.5Z"/>
          <path class="cls-9" d="m109.52,215.01c7.78,11.77,18.48,25.12,28.98,34.48-1.41,2.12-3.34-3.53-4.75-3-1.3.5-.18,2.63-.25,2.75-1.68,3.03-6.74-.98,2,7.75-43.48-35.82-69.24-105.92-53.47-160.66-6.06,40.46,4.95,84.6,27.48,118.68Z"/>
          <g>
            <path class="cls-4" d="m126.51,54.11c13.29.1,26.36,7.7,39.23,10.99,12.76,5.13,31.09,15.06,40.98,24.49,7.05,6.72,21.78,25.98,24.24,34.98-2.56-4.58-13.14,15.1-12.99,16.24.2,1.56,2.76,3.4,5,1.5.73-.62,6.92-15.44,8.5-17.24.14-.16.87.75,3.5-2.5l3.25-1c28.05,39.88,37.04,88.84,16.74,134.42-6.05-12.71-9.63-21.78-12.99-35.48.82-7.8-1.01-15.49-1.5-23.24-14.08-18.39-15.34-33.71-32.23-50.22-4.42-4.32-10.06-7.73-14.49-11.99-8.85-8.52-16.15-18.73-26.73-25.49-17.51-17.08-21.61-28.77-27.98-36.23-12.13-14.2-27.81-12.04-12.49-19.24Z"/>
            <path class="cls-14" d="m184.72,80.59c1.98-.59,6.22-.37,5.25,2.25-.43,1.15-14.54,18.21-15.49,18.99-3.02,2.49-5.16-.77-4-4,.47-1.29,13.07-16.89,14.24-17.24Z"/>
            <path class="cls-14" d="m247.19,160.55c-.49,2.26-6.54,16.16-7.25,16.74-2.5,2.08-5.93.23-5.5-3,.1-.71,6.45-12.03,7-12.49,1.95-1.63,3.91.03,5.75-1.25Z"/>
          </g>
          <path class="cls-14" d="m230.95,124.57c.07.25-.05.55.5.5-1.58,1.8-7.76,16.62-8.5,17.24-2.24,1.9-4.8.06-5-1.5-.14-1.14,10.43-20.82,12.99-16.24Z"/>
          <g>
            <path class="cls-12" d="m95.52,76.6c-.01,7.9,20.09,28.74,25.49,36.48,6.26,8.98,9.8,18.1,14.99,26.23,9.07,14.21,21.85,25.93,28.98,41.48,7.1,9.64,19.94,17.44,29.98,31.98,13.03,18.85,20.34,48.62,4.25,47.72-5.15-.29-36.41-13.99-42.48-17.49-13.48-7.77-25.32-19.16-34.73-31.48-21.35-27.96-37.84-65.8-38.98-101.19-.37-11.38,3.35-35.46,13.49-42.23.07-.04.52-.07,1.5-.5-.38,3.01-2.49,5.9-2.5,8.99Z"/>
            <path class="cls-14" d="m150.24,186.53c3.18-.25,8.4,1.87,7.25,5.75-.42,1.39-24.3,13.02-25.73,13.24-4.86.76-3.77-7.02-.5-9.99,1.64-1.49,17.01-8.84,18.99-8.99Z"/>
            <path class="cls-14" d="m126.26,152.55c2.78.11,5.89,3.12,5.75,4.75-.12,1.32-21.42,13.12-22.74,13.24-3.6.33-4.63-5.36.5-9.99,2.31-2.09,13.64-8.11,16.49-8Z"/>
          </g>
          <path class="cls-8" d="m121.01,113.07c-5.39-7.73-25.5-28.58-25.49-36.48,4.14,2.24,26.5,29.22,26.98,31.23.08.33-1.04.16-1,.5.15,1.31,1.61,4.74-.5,4.75Z"/>
        </g>
      </g>
    </g>
  </g>
</svg>